<mxfile host="app.diagrams.net" modified="2023-12-12T16:04:04.731Z" agent="Mozilla/5.0 (Windows NT 10.0; Win64; x64) AppleWebKit/537.36 (KHTML, like Gecko) Chrome/120.0.0.0 Safari/537.36" etag="rky7g2ua6VVZAr4O-SQZ" version="22.1.7" type="device">
  <diagram id="R2lEEEUBdFMjLlhIrx00" name="Page-1">
    <mxGraphModel dx="1728" dy="932" grid="1" gridSize="10" guides="1" tooltips="1" connect="1" arrows="1" fold="1" page="1" pageScale="1" pageWidth="850" pageHeight="1100" background="none" math="0" shadow="0" extFonts="Permanent Marker^https://fonts.googleapis.com/css?family=Permanent+Marker">
      <root>
        <mxCell id="0" />
        <mxCell id="1" parent="0" />
        <mxCell id="FEFhtvLa13cgDNkwD3EM-6" value="" style="rhombus;whiteSpace=wrap;html=1;rounded=0;strokeColor=default;align=center;verticalAlign=middle;fontFamily=Helvetica;fontSize=12;fontColor=default;fillColor=default;" vertex="1" parent="1">
          <mxGeometry x="443.13" y="672.5" width="133.75" height="75" as="geometry" />
        </mxCell>
        <mxCell id="FEFhtvLa13cgDNkwD3EM-1" value="" style="rounded=0;whiteSpace=wrap;html=1;" vertex="1" parent="1">
          <mxGeometry x="420" y="830" width="180" height="80" as="geometry" />
        </mxCell>
        <mxCell id="RIJSCF81iFUn1a3mw5Qo-6" style="edgeStyle=orthogonalEdgeStyle;rounded=0;orthogonalLoop=1;jettySize=auto;html=1;exitX=0.5;exitY=1;exitDx=0;exitDy=0;endArrow=none;endFill=0;labelBackgroundColor=none;fontColor=default;entryX=0.5;entryY=0;entryDx=0;entryDy=0;" parent="1" source="e7eTB-TKiGBDShrMW0o7-4" target="FEFhtvLa13cgDNkwD3EM-6" edge="1">
          <mxGeometry relative="1" as="geometry">
            <mxPoint x="510" y="670" as="targetPoint" />
          </mxGeometry>
        </mxCell>
        <mxCell id="68CF9yB8LQgH7TcPcroB-15" style="edgeStyle=orthogonalEdgeStyle;shape=connector;rounded=0;orthogonalLoop=1;jettySize=auto;html=1;exitX=1;exitY=0.5;exitDx=0;exitDy=0;labelBackgroundColor=none;align=center;verticalAlign=middle;fontFamily=Helvetica;fontSize=11;fontColor=default;endArrow=none;endFill=0;entryX=0.5;entryY=0;entryDx=0;entryDy=0;" parent="1" source="e7eTB-TKiGBDShrMW0o7-4" edge="1">
          <mxGeometry relative="1" as="geometry">
            <mxPoint x="780" y="680" as="targetPoint" />
          </mxGeometry>
        </mxCell>
        <mxCell id="e7eTB-TKiGBDShrMW0o7-4" value="Pagina" style="rounded=0;arcSize=10;whiteSpace=wrap;html=1;align=center;labelBackgroundColor=none;" parent="1" vertex="1">
          <mxGeometry x="430" y="520" width="160" height="80" as="geometry" />
        </mxCell>
        <mxCell id="e7eTB-TKiGBDShrMW0o7-14" value="" style="endArrow=none;html=1;rounded=0;exitX=1;exitY=0.5;exitDx=0;exitDy=0;entryX=0;entryY=0.75;entryDx=0;entryDy=0;labelBackgroundColor=none;fontColor=default;" parent="1" source="RIJSCF81iFUn1a3mw5Qo-5" target="e7eTB-TKiGBDShrMW0o7-4" edge="1">
          <mxGeometry relative="1" as="geometry">
            <mxPoint x="372.42640687119297" y="591.7157287525381" as="sourcePoint" />
            <mxPoint x="430" y="600" as="targetPoint" />
          </mxGeometry>
        </mxCell>
        <mxCell id="e7eTB-TKiGBDShrMW0o7-21" value="Paragrafo" style="rounded=0;arcSize=24;whiteSpace=wrap;html=1;align=center;labelBackgroundColor=none;" parent="1" vertex="1">
          <mxGeometry x="430" y="840" width="160" height="60" as="geometry" />
        </mxCell>
        <mxCell id="e7eTB-TKiGBDShrMW0o7-28" value="Contenuto" style="ellipse;whiteSpace=wrap;html=1;align=center;labelBackgroundColor=none;" parent="1" vertex="1">
          <mxGeometry x="409.40999999999997" y="940" width="100" height="40" as="geometry" />
        </mxCell>
        <mxCell id="e7eTB-TKiGBDShrMW0o7-30" value="" style="endArrow=none;html=1;rounded=0;exitX=0.5;exitY=0;exitDx=0;exitDy=0;entryX=0.25;entryY=1;entryDx=0;entryDy=0;labelBackgroundColor=none;fontColor=default;" parent="1" source="e7eTB-TKiGBDShrMW0o7-28" target="FEFhtvLa13cgDNkwD3EM-1" edge="1">
          <mxGeometry relative="1" as="geometry">
            <mxPoint x="410" y="860" as="sourcePoint" />
            <mxPoint x="510" y="900" as="targetPoint" />
          </mxGeometry>
        </mxCell>
        <mxCell id="e7eTB-TKiGBDShrMW0o7-44" value="" style="endArrow=none;html=1;rounded=0;exitX=1;exitY=1;exitDx=0;exitDy=0;entryX=0.5;entryY=0;entryDx=0;entryDy=0;labelBackgroundColor=none;fontColor=default;" parent="1" source="FEFhtvLa13cgDNkwD3EM-1" target="RIJSCF81iFUn1a3mw5Qo-3" edge="1">
          <mxGeometry relative="1" as="geometry">
            <mxPoint x="540" y="690" as="sourcePoint" />
            <mxPoint x="614.7461103560399" y="654.1825992820527" as="targetPoint" />
          </mxGeometry>
        </mxCell>
        <mxCell id="e7eTB-TKiGBDShrMW0o7-50" value="(0,1)" style="text;html=1;align=center;verticalAlign=middle;resizable=0;points=[];autosize=1;strokeColor=none;fillColor=none;rotation=0;labelBackgroundColor=none;" parent="1" vertex="1">
          <mxGeometry x="600" y="840" width="50" height="30" as="geometry" />
        </mxCell>
        <mxCell id="e7eTB-TKiGBDShrMW0o7-61" value="(0,N)" style="text;html=1;align=center;verticalAlign=middle;resizable=0;points=[];autosize=1;strokeColor=none;fillColor=none;fontSize=11;fontFamily=Helvetica;labelBackgroundColor=none;" parent="1" vertex="1">
          <mxGeometry x="585" y="570" width="50" height="30" as="geometry" />
        </mxCell>
        <mxCell id="e7eTB-TKiGBDShrMW0o7-65" value="(1,N)" style="text;html=1;align=center;verticalAlign=middle;resizable=0;points=[];autosize=1;strokeColor=none;fillColor=none;labelBackgroundColor=none;" parent="1" vertex="1">
          <mxGeometry x="459.40999999999997" y="602.5" width="50" height="30" as="geometry" />
        </mxCell>
        <mxCell id="RIJSCF81iFUn1a3mw5Qo-23" style="edgeStyle=orthogonalEdgeStyle;shape=connector;rounded=0;orthogonalLoop=1;jettySize=auto;html=1;exitX=0.5;exitY=1;exitDx=0;exitDy=0;entryX=0;entryY=0.5;entryDx=0;entryDy=0;labelBackgroundColor=none;align=center;verticalAlign=middle;fontFamily=Helvetica;fontSize=11;fontColor=default;endArrow=none;endFill=0;" parent="1" source="e7eTB-TKiGBDShrMW0o7-67" target="RIJSCF81iFUn1a3mw5Qo-22" edge="1">
          <mxGeometry relative="1" as="geometry" />
        </mxCell>
        <mxCell id="RIJSCF81iFUn1a3mw5Qo-26" style="edgeStyle=orthogonalEdgeStyle;shape=connector;rounded=0;orthogonalLoop=1;jettySize=auto;html=1;exitX=0.25;exitY=1;exitDx=0;exitDy=0;entryX=0.5;entryY=0;entryDx=0;entryDy=0;labelBackgroundColor=none;align=center;verticalAlign=middle;fontFamily=Helvetica;fontSize=11;fontColor=default;endArrow=none;endFill=0;" parent="1" source="e7eTB-TKiGBDShrMW0o7-67" target="e7eTB-TKiGBDShrMW0o7-87" edge="1">
          <mxGeometry relative="1" as="geometry">
            <Array as="points">
              <mxPoint x="207" y="270" />
              <mxPoint x="160" y="270" />
            </Array>
          </mxGeometry>
        </mxCell>
        <mxCell id="e7eTB-TKiGBDShrMW0o7-67" value="Autore" style="rounded=0;arcSize=10;whiteSpace=wrap;html=1;align=center;fontFamily=Helvetica;fontSize=11;labelBackgroundColor=none;" parent="1" vertex="1">
          <mxGeometry x="169.41" y="227.5" width="130" height="60" as="geometry" />
        </mxCell>
        <mxCell id="68CF9yB8LQgH7TcPcroB-2" style="rounded=0;orthogonalLoop=1;jettySize=auto;html=1;exitX=1;exitY=0.5;exitDx=0;exitDy=0;entryX=0;entryY=0.5;entryDx=0;entryDy=0;endArrow=none;endFill=0;labelBackgroundColor=none;fontColor=default;" parent="1" source="e7eTB-TKiGBDShrMW0o7-68" target="e7eTB-TKiGBDShrMW0o7-67" edge="1">
          <mxGeometry relative="1" as="geometry" />
        </mxCell>
        <mxCell id="e7eTB-TKiGBDShrMW0o7-68" value="Data iscrizione" style="ellipse;whiteSpace=wrap;html=1;align=center;fontFamily=Helvetica;fontSize=11;fontStyle=0;labelBackgroundColor=none;" parent="1" vertex="1">
          <mxGeometry x="10" y="227.5" width="100" height="40" as="geometry" />
        </mxCell>
        <mxCell id="68CF9yB8LQgH7TcPcroB-1" style="rounded=0;orthogonalLoop=1;jettySize=auto;html=1;exitX=1;exitY=0.5;exitDx=0;exitDy=0;entryX=0;entryY=0.25;entryDx=0;entryDy=0;endArrow=none;endFill=0;labelBackgroundColor=none;fontColor=default;" parent="1" source="e7eTB-TKiGBDShrMW0o7-69" target="e7eTB-TKiGBDShrMW0o7-67" edge="1">
          <mxGeometry relative="1" as="geometry" />
        </mxCell>
        <mxCell id="e7eTB-TKiGBDShrMW0o7-69" value="&lt;u&gt;Username&lt;/u&gt;" style="ellipse;whiteSpace=wrap;html=1;align=center;fontFamily=Helvetica;fontSize=11;labelBackgroundColor=none;" parent="1" vertex="1">
          <mxGeometry x="10" y="182.5" width="100" height="40" as="geometry" />
        </mxCell>
        <mxCell id="e7eTB-TKiGBDShrMW0o7-81" value="(1,N)" style="text;html=1;align=center;verticalAlign=middle;resizable=0;points=[];autosize=1;strokeColor=none;fillColor=none;fontSize=11;fontFamily=Helvetica;labelBackgroundColor=none;" parent="1" vertex="1">
          <mxGeometry x="236.91" y="307.5" width="50" height="30" as="geometry" />
        </mxCell>
        <mxCell id="e7eTB-TKiGBDShrMW0o7-82" value="(1,1)" style="text;html=1;align=center;verticalAlign=middle;resizable=0;points=[];autosize=1;strokeColor=none;fillColor=none;fontSize=11;fontFamily=Helvetica;labelBackgroundColor=none;" parent="1" vertex="1">
          <mxGeometry x="380" y="490" width="50" height="30" as="geometry" />
        </mxCell>
        <mxCell id="e7eTB-TKiGBDShrMW0o7-83" value="(1,N)" style="text;html=1;align=center;verticalAlign=middle;resizable=0;points=[];autosize=1;strokeColor=none;fillColor=none;fontSize=11;fontFamily=Helvetica;labelBackgroundColor=none;" parent="1" vertex="1">
          <mxGeometry x="136.91" y="307.5" width="50" height="30" as="geometry" />
        </mxCell>
        <mxCell id="e7eTB-TKiGBDShrMW0o7-84" value="(1,1)" style="text;html=1;align=center;verticalAlign=middle;resizable=0;points=[];autosize=1;strokeColor=none;fillColor=none;fontSize=11;fontFamily=Helvetica;labelBackgroundColor=none;" parent="1" vertex="1">
          <mxGeometry x="375" y="840" width="50" height="30" as="geometry" />
        </mxCell>
        <mxCell id="e7eTB-TKiGBDShrMW0o7-85" value="Data" style="ellipse;whiteSpace=wrap;html=1;align=center;fontFamily=Helvetica;fontSize=11;fontStyle=4;labelBackgroundColor=none;" parent="1" vertex="1">
          <mxGeometry x="520" y="940" width="100" height="40" as="geometry" />
        </mxCell>
        <mxCell id="e7eTB-TKiGBDShrMW0o7-86" style="shape=connector;rounded=0;orthogonalLoop=1;jettySize=auto;html=1;exitX=0.5;exitY=0;exitDx=0;exitDy=0;entryX=0.75;entryY=1;entryDx=0;entryDy=0;labelBackgroundColor=none;align=center;verticalAlign=middle;fontFamily=Helvetica;fontSize=11;fontColor=default;endArrow=none;endFill=0;" parent="1" source="e7eTB-TKiGBDShrMW0o7-85" target="FEFhtvLa13cgDNkwD3EM-1" edge="1">
          <mxGeometry relative="1" as="geometry" />
        </mxCell>
        <mxCell id="FEFhtvLa13cgDNkwD3EM-5" style="edgeStyle=orthogonalEdgeStyle;rounded=0;orthogonalLoop=1;jettySize=auto;html=1;entryX=0;entryY=0.5;entryDx=0;entryDy=0;fontFamily=Helvetica;fontSize=12;fontColor=default;endArrow=none;endFill=0;" edge="1" parent="1" source="e7eTB-TKiGBDShrMW0o7-87" target="FEFhtvLa13cgDNkwD3EM-1">
          <mxGeometry relative="1" as="geometry">
            <Array as="points">
              <mxPoint x="187" y="870" />
            </Array>
          </mxGeometry>
        </mxCell>
        <mxCell id="e7eTB-TKiGBDShrMW0o7-87" value="Proposta" style="shape=rhombus;perimeter=rhombusPerimeter;whiteSpace=wrap;html=1;align=center;fontFamily=Helvetica;fontSize=11;labelBackgroundColor=none;" parent="1" vertex="1">
          <mxGeometry x="136.91" y="572.5" width="100" height="60" as="geometry" />
        </mxCell>
        <mxCell id="e7eTB-TKiGBDShrMW0o7-96" value="Utente" style="rounded=0;arcSize=10;whiteSpace=wrap;html=1;align=center;fontFamily=Helvetica;fontSize=11;labelBackgroundColor=none;" parent="1" vertex="1">
          <mxGeometry x="622.5" y="30" width="105" height="50" as="geometry" />
        </mxCell>
        <mxCell id="e7eTB-TKiGBDShrMW0o7-111" value="(1,N)" style="text;html=1;align=center;verticalAlign=middle;resizable=0;points=[];autosize=1;strokeColor=none;fillColor=none;fontSize=11;fontFamily=Helvetica;labelBackgroundColor=none;" parent="1" vertex="1">
          <mxGeometry x="615" y="490" width="50" height="30" as="geometry" />
        </mxCell>
        <mxCell id="e7eTB-TKiGBDShrMW0o7-112" value="(1,N)" style="text;html=1;align=center;verticalAlign=middle;resizable=0;points=[];autosize=1;strokeColor=none;fillColor=none;fontSize=11;fontFamily=Helvetica;labelBackgroundColor=none;" parent="1" vertex="1">
          <mxGeometry x="677.5" y="80" width="50" height="30" as="geometry" />
        </mxCell>
        <mxCell id="e7eTB-TKiGBDShrMW0o7-117" value="Data_creazione" style="ellipse;whiteSpace=wrap;html=1;align=center;fontFamily=Helvetica;fontSize=11;labelBackgroundColor=none;" parent="1" vertex="1">
          <mxGeometry x="270" y="540" width="100" height="40" as="geometry" />
        </mxCell>
        <mxCell id="e7eTB-TKiGBDShrMW0o7-118" style="shape=connector;rounded=0;orthogonalLoop=1;jettySize=auto;html=1;entryX=0;entryY=0.5;entryDx=0;entryDy=0;labelBackgroundColor=none;align=center;verticalAlign=middle;fontFamily=Helvetica;fontSize=11;fontColor=default;endArrow=none;endFill=0;" parent="1" source="e7eTB-TKiGBDShrMW0o7-117" target="e7eTB-TKiGBDShrMW0o7-4" edge="1">
          <mxGeometry relative="1" as="geometry" />
        </mxCell>
        <mxCell id="RIJSCF81iFUn1a3mw5Qo-7" style="edgeStyle=orthogonalEdgeStyle;shape=connector;rounded=0;orthogonalLoop=1;jettySize=auto;html=1;labelBackgroundColor=none;align=center;verticalAlign=middle;fontFamily=Helvetica;fontSize=11;fontColor=default;endArrow=none;endFill=0;exitX=0.5;exitY=1;exitDx=0;exitDy=0;" parent="1" source="FEFhtvLa13cgDNkwD3EM-6" edge="1">
          <mxGeometry relative="1" as="geometry">
            <mxPoint x="510" y="750" as="sourcePoint" />
            <mxPoint x="510" y="830" as="targetPoint" />
          </mxGeometry>
        </mxCell>
        <mxCell id="RIJSCF81iFUn1a3mw5Qo-3" value="Posizione" style="ellipse;whiteSpace=wrap;html=1;align=center;fontStyle=4;labelBackgroundColor=none;" parent="1" vertex="1">
          <mxGeometry x="635" y="940" width="100" height="40" as="geometry" />
        </mxCell>
        <mxCell id="RIJSCF81iFUn1a3mw5Qo-5" value="Titolo" style="ellipse;whiteSpace=wrap;html=1;align=center;fontStyle=4;labelBackgroundColor=none;" parent="1" vertex="1">
          <mxGeometry x="271.91" y="605" width="100" height="40" as="geometry" />
        </mxCell>
        <mxCell id="RIJSCF81iFUn1a3mw5Qo-24" style="edgeStyle=orthogonalEdgeStyle;shape=connector;rounded=0;orthogonalLoop=1;jettySize=auto;html=1;exitX=1;exitY=0.5;exitDx=0;exitDy=0;entryX=0.25;entryY=0;entryDx=0;entryDy=0;labelBackgroundColor=none;align=center;verticalAlign=middle;fontFamily=Helvetica;fontSize=11;fontColor=default;endArrow=none;endFill=0;" parent="1" source="RIJSCF81iFUn1a3mw5Qo-22" target="e7eTB-TKiGBDShrMW0o7-4" edge="1">
          <mxGeometry relative="1" as="geometry">
            <Array as="points">
              <mxPoint x="430" y="430" />
              <mxPoint x="430" y="520" />
            </Array>
          </mxGeometry>
        </mxCell>
        <mxCell id="RIJSCF81iFUn1a3mw5Qo-22" value="Proprietario" style="shape=rhombus;perimeter=rhombusPerimeter;whiteSpace=wrap;html=1;align=center;labelBackgroundColor=none;" parent="1" vertex="1">
          <mxGeometry x="270" y="400" width="120" height="60" as="geometry" />
        </mxCell>
        <mxCell id="RIJSCF81iFUn1a3mw5Qo-49" value="Data visita" style="ellipse;whiteSpace=wrap;html=1;align=center;fontFamily=Helvetica;fontSize=11;labelBackgroundColor=none;" parent="1" vertex="1">
          <mxGeometry x="770" y="190" width="70" height="45" as="geometry" />
        </mxCell>
        <mxCell id="7Sxh09HdEP13g5cLgeae-3" value="" style="edgeStyle=orthogonalEdgeStyle;shape=connector;rounded=0;orthogonalLoop=1;jettySize=auto;html=1;exitX=0.5;exitY=1;exitDx=0;exitDy=0;labelBackgroundColor=none;align=center;verticalAlign=middle;fontFamily=Helvetica;fontSize=11;fontColor=default;endArrow=none;endFill=0;entryX=1;entryY=0.5;entryDx=0;entryDy=0;" parent="1" edge="1" target="FEFhtvLa13cgDNkwD3EM-1" source="68CF9yB8LQgH7TcPcroB-16">
          <mxGeometry relative="1" as="geometry">
            <Array as="points">
              <mxPoint x="780" y="870" />
            </Array>
            <mxPoint x="790" y="720" as="sourcePoint" />
            <mxPoint x="780" y="880" as="targetPoint" />
          </mxGeometry>
        </mxCell>
        <mxCell id="7Sxh09HdEP13g5cLgeae-9" style="edgeStyle=orthogonalEdgeStyle;rounded=0;orthogonalLoop=1;jettySize=auto;html=1;exitX=0.5;exitY=1;exitDx=0;exitDy=0;entryX=1;entryY=0;entryDx=0;entryDy=0;endArrow=none;endFill=0;labelBackgroundColor=none;fontColor=default;" parent="1" source="RIJSCF81iFUn1a3mw5Qo-1" target="e7eTB-TKiGBDShrMW0o7-4" edge="1">
          <mxGeometry relative="1" as="geometry">
            <Array as="points">
              <mxPoint x="675" y="520" />
            </Array>
          </mxGeometry>
        </mxCell>
        <mxCell id="68CF9yB8LQgH7TcPcroB-8" style="rounded=0;orthogonalLoop=1;jettySize=auto;html=1;exitX=1;exitY=0;exitDx=0;exitDy=0;entryX=0;entryY=0.5;entryDx=0;entryDy=0;endArrow=none;endFill=0;labelBackgroundColor=none;fontColor=default;" parent="1" target="RIJSCF81iFUn1a3mw5Qo-49" edge="1" source="RIJSCF81iFUn1a3mw5Qo-1">
          <mxGeometry relative="1" as="geometry">
            <mxPoint x="730" y="260" as="sourcePoint" />
          </mxGeometry>
        </mxCell>
        <mxCell id="68CF9yB8LQgH7TcPcroB-10" style="edgeStyle=none;shape=connector;rounded=0;orthogonalLoop=1;jettySize=auto;html=1;exitX=1;exitY=1;exitDx=0;exitDy=0;entryX=0;entryY=0.5;entryDx=0;entryDy=0;labelBackgroundColor=none;align=center;verticalAlign=middle;fontFamily=Helvetica;fontSize=11;fontColor=default;endArrow=none;endFill=0;" parent="1" target="68CF9yB8LQgH7TcPcroB-7" edge="1" source="RIJSCF81iFUn1a3mw5Qo-1">
          <mxGeometry relative="1" as="geometry">
            <mxPoint x="730" y="260" as="sourcePoint" />
          </mxGeometry>
        </mxCell>
        <mxCell id="3IYoHXxO48xl407wnTbs-1" style="rounded=0;orthogonalLoop=1;jettySize=auto;html=1;exitX=0.5;exitY=0;exitDx=0;exitDy=0;entryX=0.5;entryY=1;entryDx=0;entryDy=0;endArrow=none;endFill=0;" parent="1" source="RIJSCF81iFUn1a3mw5Qo-1" target="e7eTB-TKiGBDShrMW0o7-96" edge="1">
          <mxGeometry relative="1" as="geometry" />
        </mxCell>
        <mxCell id="RIJSCF81iFUn1a3mw5Qo-1" value="Visita" style="shape=rhombus;perimeter=rhombusPerimeter;whiteSpace=wrap;html=1;align=center;labelBackgroundColor=none;" parent="1" vertex="1">
          <mxGeometry x="615" y="227.5" width="120" height="60" as="geometry" />
        </mxCell>
        <mxCell id="68CF9yB8LQgH7TcPcroB-3" value="&lt;u&gt;UtenteID&lt;/u&gt;" style="ellipse;whiteSpace=wrap;html=1;align=center;fontFamily=Helvetica;fontSize=11;labelBackgroundColor=none;" parent="1" vertex="1">
          <mxGeometry x="490" y="30" width="100" height="40" as="geometry" />
        </mxCell>
        <mxCell id="68CF9yB8LQgH7TcPcroB-5" style="rounded=0;orthogonalLoop=1;jettySize=auto;html=1;exitX=1;exitY=0.5;exitDx=0;exitDy=0;entryX=0.01;entryY=0.424;entryDx=0;entryDy=0;entryPerimeter=0;endArrow=none;endFill=0;labelBackgroundColor=none;fontColor=default;edgeStyle=orthogonalEdgeStyle;" parent="1" source="68CF9yB8LQgH7TcPcroB-3" target="e7eTB-TKiGBDShrMW0o7-96" edge="1">
          <mxGeometry relative="1" as="geometry" />
        </mxCell>
        <mxCell id="68CF9yB8LQgH7TcPcroB-7" value="Valutazione" style="ellipse;whiteSpace=wrap;html=1;align=center;fontFamily=Helvetica;fontSize=11;labelBackgroundColor=none;" parent="1" vertex="1">
          <mxGeometry x="770" y="272.5" width="70" height="45" as="geometry" />
        </mxCell>
        <mxCell id="68CF9yB8LQgH7TcPcroB-14" style="edgeStyle=none;shape=connector;rounded=0;orthogonalLoop=1;jettySize=auto;html=1;exitX=1;exitY=0.5;exitDx=0;exitDy=0;labelBackgroundColor=none;align=center;verticalAlign=middle;fontFamily=Helvetica;fontSize=11;fontColor=default;endArrow=none;endFill=0;" parent="1" source="68CF9yB8LQgH7TcPcroB-13" target="e7eTB-TKiGBDShrMW0o7-67" edge="1">
          <mxGeometry relative="1" as="geometry" />
        </mxCell>
        <mxCell id="68CF9yB8LQgH7TcPcroB-13" value="Password" style="ellipse;whiteSpace=wrap;html=1;align=center;fontFamily=Helvetica;fontSize=11;fontStyle=0;labelBackgroundColor=none;" parent="1" vertex="1">
          <mxGeometry x="10" y="277.5" width="100" height="40" as="geometry" />
        </mxCell>
        <mxCell id="68CF9yB8LQgH7TcPcroB-16" value="Collegamento" style="shape=rhombus;perimeter=rhombusPerimeter;whiteSpace=wrap;html=1;align=center;fontFamily=Helvetica;fontSize=11;labelBackgroundColor=none;" parent="1" vertex="1">
          <mxGeometry x="720" y="670" width="120" height="60" as="geometry" />
        </mxCell>
        <mxCell id="O86MLwPZzpu66x5F0K88-2" style="rounded=0;orthogonalLoop=1;jettySize=auto;html=1;exitX=0.5;exitY=0;exitDx=0;exitDy=0;entryX=-0.002;entryY=0.925;entryDx=0;entryDy=0;endArrow=none;endFill=0;labelBackgroundColor=none;fontColor=default;entryPerimeter=0;" parent="1" source="O86MLwPZzpu66x5F0K88-1" target="FEFhtvLa13cgDNkwD3EM-1" edge="1">
          <mxGeometry relative="1" as="geometry">
            <mxPoint x="430" y="885" as="targetPoint" />
          </mxGeometry>
        </mxCell>
        <mxCell id="O86MLwPZzpu66x5F0K88-1" value="Stato" style="ellipse;whiteSpace=wrap;html=1;align=center;labelBackgroundColor=none;" parent="1" vertex="1">
          <mxGeometry x="299.40999999999997" y="940" width="100" height="40" as="geometry" />
        </mxCell>
        <mxCell id="0_gCjwtPqXCcb79Qokm8-1" value="Composizione" style="shape=rhombus;perimeter=rhombusPerimeter;whiteSpace=wrap;html=1;align=center;fontFamily=Helvetica;fontSize=11;labelBackgroundColor=none;" parent="1" vertex="1">
          <mxGeometry x="450" y="680" width="120" height="60" as="geometry" />
        </mxCell>
        <mxCell id="FEFhtvLa13cgDNkwD3EM-8" value="(1,1)" style="text;html=1;align=center;verticalAlign=middle;resizable=0;points=[];autosize=1;strokeColor=none;fillColor=none;fontSize=11;fontFamily=Helvetica;labelBackgroundColor=none;" vertex="1" parent="1">
          <mxGeometry x="470" y="800" width="50" height="30" as="geometry" />
        </mxCell>
      </root>
    </mxGraphModel>
  </diagram>
</mxfile>
